<mxfile host="app.diagrams.net" agent="Mozilla/5.0 (Windows NT 10.0; Win64; x64) AppleWebKit/537.36 (KHTML, like Gecko) Chrome/139.0.0.0 Safari/537.36" version="28.2.0">
  <diagram name="Sida-1" id="f8w5I-yGZrrWHKU5yhE_">
    <mxGraphModel dx="2564" dy="2199" grid="1" gridSize="12" guides="1" tooltips="1" connect="1" arrows="1" fold="1" page="1" pageScale="1" pageWidth="827" pageHeight="1169" math="0" shadow="0">
      <root>
        <mxCell id="0" />
        <mxCell id="1" parent="0" />
        <mxCell id="-gFtQ6SPpKlM3vbzV3f1-65" style="edgeStyle=orthogonalEdgeStyle;rounded=0;orthogonalLoop=1;jettySize=auto;html=1;exitX=0.5;exitY=1;exitDx=0;exitDy=0;entryX=0.5;entryY=0;entryDx=0;entryDy=0;endArrow=none;endFill=0;" edge="1" parent="1" source="-gFtQ6SPpKlM3vbzV3f1-1" target="-gFtQ6SPpKlM3vbzV3f1-2">
          <mxGeometry relative="1" as="geometry" />
        </mxCell>
        <mxCell id="-gFtQ6SPpKlM3vbzV3f1-1" value="&lt;font style=&quot;font-size: 21px;&quot;&gt;Movie&lt;br&gt;Company&lt;/font&gt;" style="rounded=1;arcSize=10;whiteSpace=wrap;html=1;align=center;" vertex="1" parent="1">
          <mxGeometry x="204" y="-12" width="118" height="56" as="geometry" />
        </mxCell>
        <mxCell id="-gFtQ6SPpKlM3vbzV3f1-5" style="edgeStyle=orthogonalEdgeStyle;rounded=0;orthogonalLoop=1;jettySize=auto;html=1;exitX=0.5;exitY=0;exitDx=0;exitDy=0;entryX=0.5;entryY=0;entryDx=0;entryDy=0;endArrow=none;endFill=0;" edge="1" parent="1" source="-gFtQ6SPpKlM3vbzV3f1-2" target="-gFtQ6SPpKlM3vbzV3f1-2">
          <mxGeometry relative="1" as="geometry" />
        </mxCell>
        <mxCell id="-gFtQ6SPpKlM3vbzV3f1-67" style="edgeStyle=orthogonalEdgeStyle;rounded=0;orthogonalLoop=1;jettySize=auto;html=1;exitX=0.75;exitY=0;exitDx=0;exitDy=0;entryX=0;entryY=0.5;entryDx=0;entryDy=0;endArrow=none;endFill=0;" edge="1" parent="1" source="-gFtQ6SPpKlM3vbzV3f1-2" target="-gFtQ6SPpKlM3vbzV3f1-14">
          <mxGeometry relative="1" as="geometry" />
        </mxCell>
        <mxCell id="-gFtQ6SPpKlM3vbzV3f1-71" style="edgeStyle=orthogonalEdgeStyle;rounded=0;orthogonalLoop=1;jettySize=auto;html=1;exitX=1;exitY=0.75;exitDx=0;exitDy=0;entryX=0;entryY=0.5;entryDx=0;entryDy=0;endArrow=none;endFill=0;" edge="1" parent="1" source="-gFtQ6SPpKlM3vbzV3f1-2" target="-gFtQ6SPpKlM3vbzV3f1-72">
          <mxGeometry relative="1" as="geometry">
            <mxPoint x="516" y="216.52941176470586" as="targetPoint" />
          </mxGeometry>
        </mxCell>
        <mxCell id="-gFtQ6SPpKlM3vbzV3f1-113" value="1" style="edgeLabel;html=1;align=center;verticalAlign=middle;resizable=0;points=[];fontSize=20;" vertex="1" connectable="0" parent="-gFtQ6SPpKlM3vbzV3f1-71">
          <mxGeometry x="0.5241" y="-1" relative="1" as="geometry">
            <mxPoint x="26" as="offset" />
          </mxGeometry>
        </mxCell>
        <mxCell id="-gFtQ6SPpKlM3vbzV3f1-76" style="edgeStyle=orthogonalEdgeStyle;rounded=0;orthogonalLoop=1;jettySize=auto;html=1;exitX=0;exitY=0.25;exitDx=0;exitDy=0;entryX=0.5;entryY=1;entryDx=0;entryDy=0;endArrow=none;endFill=0;" edge="1" parent="1" source="-gFtQ6SPpKlM3vbzV3f1-2" target="-gFtQ6SPpKlM3vbzV3f1-7">
          <mxGeometry relative="1" as="geometry" />
        </mxCell>
        <mxCell id="-gFtQ6SPpKlM3vbzV3f1-77" style="edgeStyle=orthogonalEdgeStyle;rounded=0;orthogonalLoop=1;jettySize=auto;html=1;exitX=0.25;exitY=0;exitDx=0;exitDy=0;entryX=1;entryY=0.5;entryDx=0;entryDy=0;endArrow=none;endFill=0;" edge="1" parent="1" source="-gFtQ6SPpKlM3vbzV3f1-2" target="-gFtQ6SPpKlM3vbzV3f1-15">
          <mxGeometry relative="1" as="geometry" />
        </mxCell>
        <mxCell id="-gFtQ6SPpKlM3vbzV3f1-351" style="edgeStyle=orthogonalEdgeStyle;rounded=0;orthogonalLoop=1;jettySize=auto;html=1;exitX=0;exitY=0.75;exitDx=0;exitDy=0;entryX=1;entryY=0.5;entryDx=0;entryDy=0;endArrow=none;endFill=0;" edge="1" parent="1" source="-gFtQ6SPpKlM3vbzV3f1-2" target="-gFtQ6SPpKlM3vbzV3f1-349">
          <mxGeometry relative="1" as="geometry" />
        </mxCell>
        <mxCell id="-gFtQ6SPpKlM3vbzV3f1-2" value="&lt;font style=&quot;font-size: 22px;&quot;&gt;Store&lt;/font&gt;" style="whiteSpace=wrap;html=1;align=center;" vertex="1" parent="1">
          <mxGeometry x="215" y="187" width="96" height="48" as="geometry" />
        </mxCell>
        <mxCell id="-gFtQ6SPpKlM3vbzV3f1-7" value="&lt;font style=&quot;font-size: 15px;&quot;&gt;Tele#&lt;/font&gt;" style="ellipse;whiteSpace=wrap;html=1;align=center;" vertex="1" parent="1">
          <mxGeometry x="115" y="136" width="100" height="40" as="geometry" />
        </mxCell>
        <mxCell id="-gFtQ6SPpKlM3vbzV3f1-14" value="Name" style="ellipse;whiteSpace=wrap;html=1;align=center;" vertex="1" parent="1">
          <mxGeometry x="346" y="96" width="100" height="40" as="geometry" />
        </mxCell>
        <mxCell id="-gFtQ6SPpKlM3vbzV3f1-15" value="&lt;u&gt;StoreID&lt;/u&gt;" style="ellipse;whiteSpace=wrap;html=1;align=center;" vertex="1" parent="1">
          <mxGeometry x="115" y="88" width="100" height="40" as="geometry" />
        </mxCell>
        <mxCell id="-gFtQ6SPpKlM3vbzV3f1-18" value="&lt;font style=&quot;font-size: 16px;&quot;&gt;Street&lt;/font&gt;" style="ellipse;whiteSpace=wrap;html=1;align=center;" vertex="1" parent="1">
          <mxGeometry x="-180" y="268" width="100" height="40" as="geometry" />
        </mxCell>
        <mxCell id="-gFtQ6SPpKlM3vbzV3f1-19" value="&lt;font style=&quot;font-size: 16px;&quot;&gt;City&lt;/font&gt;" style="ellipse;whiteSpace=wrap;html=1;align=center;" vertex="1" parent="1">
          <mxGeometry x="-180" y="147" width="100" height="40" as="geometry" />
        </mxCell>
        <mxCell id="-gFtQ6SPpKlM3vbzV3f1-28" value="&lt;font style=&quot;font-size: 16px;&quot;&gt;House#&lt;/font&gt;" style="ellipse;whiteSpace=wrap;html=1;align=center;" vertex="1" parent="1">
          <mxGeometry x="-32" y="128" width="100" height="40" as="geometry" />
        </mxCell>
        <mxCell id="-gFtQ6SPpKlM3vbzV3f1-31" value="&lt;font style=&quot;font-size: 16px;&quot;&gt;ZIP&lt;/font&gt;" style="ellipse;whiteSpace=wrap;html=1;align=center;" vertex="1" parent="1">
          <mxGeometry x="-32" y="276" width="100" height="40" as="geometry" />
        </mxCell>
        <mxCell id="-gFtQ6SPpKlM3vbzV3f1-51" style="edgeStyle=orthogonalEdgeStyle;rounded=0;orthogonalLoop=1;jettySize=auto;html=1;exitX=0.5;exitY=1;exitDx=0;exitDy=0;entryX=1;entryY=0.5;entryDx=0;entryDy=0;endArrow=none;endFill=0;" edge="1" parent="1" source="-gFtQ6SPpKlM3vbzV3f1-33" target="-gFtQ6SPpKlM3vbzV3f1-38">
          <mxGeometry relative="1" as="geometry" />
        </mxCell>
        <mxCell id="-gFtQ6SPpKlM3vbzV3f1-52" style="edgeStyle=orthogonalEdgeStyle;rounded=0;orthogonalLoop=1;jettySize=auto;html=1;exitX=0.25;exitY=1;exitDx=0;exitDy=0;entryX=1;entryY=0.5;entryDx=0;entryDy=0;endArrow=none;endFill=0;" edge="1" parent="1" source="-gFtQ6SPpKlM3vbzV3f1-33" target="-gFtQ6SPpKlM3vbzV3f1-46">
          <mxGeometry relative="1" as="geometry" />
        </mxCell>
        <mxCell id="-gFtQ6SPpKlM3vbzV3f1-55" style="edgeStyle=orthogonalEdgeStyle;rounded=0;orthogonalLoop=1;jettySize=auto;html=1;exitX=0.5;exitY=0;exitDx=0;exitDy=0;entryX=0.5;entryY=1;entryDx=0;entryDy=0;endArrow=none;endFill=0;shape=link;" edge="1" parent="1" source="-gFtQ6SPpKlM3vbzV3f1-33" target="-gFtQ6SPpKlM3vbzV3f1-35">
          <mxGeometry relative="1" as="geometry" />
        </mxCell>
        <mxCell id="-gFtQ6SPpKlM3vbzV3f1-81" value="1" style="edgeLabel;html=1;align=center;verticalAlign=middle;resizable=0;points=[];fontSize=20;" vertex="1" connectable="0" parent="-gFtQ6SPpKlM3vbzV3f1-55">
          <mxGeometry x="-0.1262" y="1" relative="1" as="geometry">
            <mxPoint y="-12" as="offset" />
          </mxGeometry>
        </mxCell>
        <mxCell id="-gFtQ6SPpKlM3vbzV3f1-161" style="edgeStyle=orthogonalEdgeStyle;rounded=0;orthogonalLoop=1;jettySize=auto;html=1;exitX=1;exitY=0.5;exitDx=0;exitDy=0;entryX=0;entryY=0.5;entryDx=0;entryDy=0;endArrow=none;endFill=0;shape=link;" edge="1" parent="1" source="-gFtQ6SPpKlM3vbzV3f1-33" target="-gFtQ6SPpKlM3vbzV3f1-160">
          <mxGeometry relative="1" as="geometry" />
        </mxCell>
        <mxCell id="-gFtQ6SPpKlM3vbzV3f1-162" value="1" style="edgeLabel;html=1;align=center;verticalAlign=middle;resizable=0;points=[];fontSize=20;" vertex="1" connectable="0" parent="-gFtQ6SPpKlM3vbzV3f1-161">
          <mxGeometry x="-0.1379" relative="1" as="geometry">
            <mxPoint x="32" as="offset" />
          </mxGeometry>
        </mxCell>
        <mxCell id="-gFtQ6SPpKlM3vbzV3f1-275" style="edgeStyle=orthogonalEdgeStyle;rounded=0;orthogonalLoop=1;jettySize=auto;html=1;exitX=0.75;exitY=1;exitDx=0;exitDy=0;entryX=1;entryY=0.5;entryDx=0;entryDy=0;endArrow=none;endFill=0;" edge="1" parent="1" source="-gFtQ6SPpKlM3vbzV3f1-33" target="-gFtQ6SPpKlM3vbzV3f1-251">
          <mxGeometry relative="1" as="geometry" />
        </mxCell>
        <mxCell id="-gFtQ6SPpKlM3vbzV3f1-277" value="&lt;font style=&quot;font-size: 20px;&quot;&gt;1&lt;/font&gt;" style="edgeLabel;html=1;align=center;verticalAlign=middle;resizable=0;points=[];" vertex="1" connectable="0" parent="-gFtQ6SPpKlM3vbzV3f1-275">
          <mxGeometry x="0.7359" y="-2" relative="1" as="geometry">
            <mxPoint x="-16" as="offset" />
          </mxGeometry>
        </mxCell>
        <mxCell id="-gFtQ6SPpKlM3vbzV3f1-363" style="edgeStyle=orthogonalEdgeStyle;rounded=0;orthogonalLoop=1;jettySize=auto;html=1;exitX=0.25;exitY=0;exitDx=0;exitDy=0;entryX=1;entryY=0.5;entryDx=0;entryDy=0;endArrow=none;endFill=0;" edge="1" parent="1" source="-gFtQ6SPpKlM3vbzV3f1-33" target="-gFtQ6SPpKlM3vbzV3f1-361">
          <mxGeometry relative="1" as="geometry" />
        </mxCell>
        <mxCell id="-gFtQ6SPpKlM3vbzV3f1-33" value="&lt;font style=&quot;font-size: 16px;&quot;&gt;Employee&lt;/font&gt;" style="whiteSpace=wrap;html=1;align=center;" vertex="1" parent="1">
          <mxGeometry x="192" y="480" width="100" height="40" as="geometry" />
        </mxCell>
        <mxCell id="-gFtQ6SPpKlM3vbzV3f1-56" style="edgeStyle=orthogonalEdgeStyle;rounded=0;orthogonalLoop=1;jettySize=auto;html=1;exitX=0.5;exitY=0;exitDx=0;exitDy=0;entryX=0.25;entryY=1;entryDx=0;entryDy=0;endArrow=none;endFill=0;shape=link;" edge="1" parent="1" source="-gFtQ6SPpKlM3vbzV3f1-35" target="-gFtQ6SPpKlM3vbzV3f1-2">
          <mxGeometry relative="1" as="geometry" />
        </mxCell>
        <mxCell id="-gFtQ6SPpKlM3vbzV3f1-80" value="&lt;font style=&quot;font-size: 20px;&quot;&gt;N&lt;/font&gt;" style="edgeLabel;html=1;align=center;verticalAlign=middle;resizable=0;points=[];" vertex="1" connectable="0" parent="-gFtQ6SPpKlM3vbzV3f1-56">
          <mxGeometry x="0.1781" y="-1" relative="1" as="geometry">
            <mxPoint y="54" as="offset" />
          </mxGeometry>
        </mxCell>
        <mxCell id="-gFtQ6SPpKlM3vbzV3f1-35" value="&lt;font style=&quot;font-size: 16px;&quot;&gt;Work&lt;/font&gt;" style="shape=rhombus;perimeter=rhombusPerimeter;whiteSpace=wrap;html=1;align=center;" vertex="1" parent="1">
          <mxGeometry x="182" y="360" width="120" height="60" as="geometry" />
        </mxCell>
        <mxCell id="-gFtQ6SPpKlM3vbzV3f1-38" value="&lt;font style=&quot;font-size: 16px;&quot;&gt;&lt;u&gt;EmployeeID&lt;/u&gt;&lt;/font&gt;" style="ellipse;whiteSpace=wrap;html=1;align=center;" vertex="1" parent="1">
          <mxGeometry x="76" y="604" width="100" height="40" as="geometry" />
        </mxCell>
        <mxCell id="-gFtQ6SPpKlM3vbzV3f1-42" value="&lt;font style=&quot;font-size: 16px;&quot;&gt;First&lt;/font&gt;" style="ellipse;whiteSpace=wrap;html=1;align=center;" vertex="1" parent="1">
          <mxGeometry x="-64" y="376" width="100" height="40" as="geometry" />
        </mxCell>
        <mxCell id="-gFtQ6SPpKlM3vbzV3f1-44" value="&lt;font style=&quot;font-size: 16px;&quot;&gt;Last&lt;/font&gt;" style="ellipse;whiteSpace=wrap;html=1;align=center;" vertex="1" parent="1">
          <mxGeometry x="-64" y="470" width="100" height="40" as="geometry" />
        </mxCell>
        <mxCell id="-gFtQ6SPpKlM3vbzV3f1-46" value="&lt;font style=&quot;font-size: 16px;&quot;&gt;Salary&lt;/font&gt;" style="ellipse;whiteSpace=wrap;html=1;align=center;" vertex="1" parent="1">
          <mxGeometry x="76" y="540" width="100" height="40" as="geometry" />
        </mxCell>
        <mxCell id="-gFtQ6SPpKlM3vbzV3f1-59" style="edgeStyle=orthogonalEdgeStyle;rounded=0;orthogonalLoop=1;jettySize=auto;html=1;exitX=0;exitY=0.5;exitDx=0;exitDy=0;entryX=0.75;entryY=1;entryDx=0;entryDy=0;endArrow=none;endFill=0;shape=link;" edge="1" parent="1" source="-gFtQ6SPpKlM3vbzV3f1-57" target="-gFtQ6SPpKlM3vbzV3f1-2">
          <mxGeometry relative="1" as="geometry" />
        </mxCell>
        <mxCell id="-gFtQ6SPpKlM3vbzV3f1-63" value="1" style="edgeLabel;html=1;align=center;verticalAlign=middle;resizable=0;points=[];fontSize=20;" vertex="1" connectable="0" parent="-gFtQ6SPpKlM3vbzV3f1-59">
          <mxGeometry x="-0.7976" y="1" relative="1" as="geometry">
            <mxPoint as="offset" />
          </mxGeometry>
        </mxCell>
        <mxCell id="-gFtQ6SPpKlM3vbzV3f1-57" value="&lt;font style=&quot;font-size: 16px;&quot;&gt;Of&lt;/font&gt;" style="shape=rhombus;perimeter=rhombusPerimeter;whiteSpace=wrap;html=1;align=center;" vertex="1" parent="1">
          <mxGeometry x="346" y="276" width="120" height="60" as="geometry" />
        </mxCell>
        <mxCell id="-gFtQ6SPpKlM3vbzV3f1-84" style="edgeStyle=orthogonalEdgeStyle;rounded=0;orthogonalLoop=1;jettySize=auto;html=1;exitX=0;exitY=0.5;exitDx=0;exitDy=0;entryX=1;entryY=0.5;entryDx=0;entryDy=0;endArrow=none;endFill=0;shape=link;" edge="1" parent="1" source="-gFtQ6SPpKlM3vbzV3f1-60" target="-gFtQ6SPpKlM3vbzV3f1-57">
          <mxGeometry relative="1" as="geometry" />
        </mxCell>
        <mxCell id="-gFtQ6SPpKlM3vbzV3f1-90" value="1" style="edgeLabel;html=1;align=center;verticalAlign=middle;resizable=0;points=[];fontSize=20;" vertex="1" connectable="0" parent="-gFtQ6SPpKlM3vbzV3f1-84">
          <mxGeometry x="0.6396" y="2" relative="1" as="geometry">
            <mxPoint x="1" as="offset" />
          </mxGeometry>
        </mxCell>
        <mxCell id="-gFtQ6SPpKlM3vbzV3f1-292" style="edgeStyle=orthogonalEdgeStyle;rounded=0;orthogonalLoop=1;jettySize=auto;html=1;exitX=0.25;exitY=1;exitDx=0;exitDy=0;entryX=1;entryY=0.5;entryDx=0;entryDy=0;endArrow=none;endFill=0;" edge="1" parent="1" source="-gFtQ6SPpKlM3vbzV3f1-60" target="-gFtQ6SPpKlM3vbzV3f1-178">
          <mxGeometry relative="1" as="geometry" />
        </mxCell>
        <mxCell id="-gFtQ6SPpKlM3vbzV3f1-315" style="edgeStyle=orthogonalEdgeStyle;rounded=0;orthogonalLoop=1;jettySize=auto;html=1;exitX=1;exitY=0.5;exitDx=0;exitDy=0;entryX=0;entryY=0.5;entryDx=0;entryDy=0;endArrow=none;endFill=0;" edge="1" parent="1" source="-gFtQ6SPpKlM3vbzV3f1-60" target="-gFtQ6SPpKlM3vbzV3f1-300">
          <mxGeometry relative="1" as="geometry" />
        </mxCell>
        <mxCell id="-gFtQ6SPpKlM3vbzV3f1-318" value="&lt;font style=&quot;font-size: 20px;&quot;&gt;1&lt;/font&gt;" style="edgeLabel;html=1;align=center;verticalAlign=middle;resizable=0;points=[];" vertex="1" connectable="0" parent="-gFtQ6SPpKlM3vbzV3f1-315">
          <mxGeometry x="-0.1797" y="3" relative="1" as="geometry">
            <mxPoint x="18" y="32" as="offset" />
          </mxGeometry>
        </mxCell>
        <mxCell id="-gFtQ6SPpKlM3vbzV3f1-324" style="edgeStyle=orthogonalEdgeStyle;rounded=0;orthogonalLoop=1;jettySize=auto;html=1;exitX=1;exitY=1;exitDx=0;exitDy=0;entryX=0;entryY=0.5;entryDx=0;entryDy=0;endArrow=none;endFill=0;" edge="1" parent="1" source="-gFtQ6SPpKlM3vbzV3f1-60" target="-gFtQ6SPpKlM3vbzV3f1-320">
          <mxGeometry relative="1" as="geometry" />
        </mxCell>
        <mxCell id="-gFtQ6SPpKlM3vbzV3f1-327" style="edgeStyle=orthogonalEdgeStyle;rounded=0;orthogonalLoop=1;jettySize=auto;html=1;exitX=0.75;exitY=1;exitDx=0;exitDy=0;entryX=0;entryY=0.5;entryDx=0;entryDy=0;endArrow=none;endFill=0;" edge="1" parent="1" source="-gFtQ6SPpKlM3vbzV3f1-60" target="-gFtQ6SPpKlM3vbzV3f1-325">
          <mxGeometry relative="1" as="geometry" />
        </mxCell>
        <mxCell id="-gFtQ6SPpKlM3vbzV3f1-329" style="edgeStyle=orthogonalEdgeStyle;rounded=0;orthogonalLoop=1;jettySize=auto;html=1;exitX=0.5;exitY=1;exitDx=0;exitDy=0;entryX=0;entryY=0.5;entryDx=0;entryDy=0;endArrow=none;endFill=0;" edge="1" parent="1" source="-gFtQ6SPpKlM3vbzV3f1-60" target="-gFtQ6SPpKlM3vbzV3f1-328">
          <mxGeometry relative="1" as="geometry" />
        </mxCell>
        <mxCell id="-gFtQ6SPpKlM3vbzV3f1-60" value="&lt;font style=&quot;font-size: 16px;&quot;&gt;Member&lt;/font&gt;" style="whiteSpace=wrap;html=1;align=center;" vertex="1" parent="1">
          <mxGeometry x="504" y="286" width="100" height="40" as="geometry" />
        </mxCell>
        <mxCell id="-gFtQ6SPpKlM3vbzV3f1-93" style="edgeStyle=orthogonalEdgeStyle;rounded=0;orthogonalLoop=1;jettySize=auto;html=1;exitX=1;exitY=0.5;exitDx=0;exitDy=0;entryX=0;entryY=0.5;entryDx=0;entryDy=0;endArrow=none;endFill=0;" edge="1" parent="1" source="-gFtQ6SPpKlM3vbzV3f1-72" target="-gFtQ6SPpKlM3vbzV3f1-73">
          <mxGeometry relative="1" as="geometry" />
        </mxCell>
        <mxCell id="-gFtQ6SPpKlM3vbzV3f1-111" value="N" style="edgeLabel;html=1;align=center;verticalAlign=middle;resizable=0;points=[];fontSize=20;" vertex="1" connectable="0" parent="-gFtQ6SPpKlM3vbzV3f1-93">
          <mxGeometry x="-0.156" y="1" relative="1" as="geometry">
            <mxPoint x="-19" as="offset" />
          </mxGeometry>
        </mxCell>
        <mxCell id="-gFtQ6SPpKlM3vbzV3f1-94" style="edgeStyle=orthogonalEdgeStyle;rounded=0;orthogonalLoop=1;jettySize=auto;html=1;exitX=0.5;exitY=1;exitDx=0;exitDy=0;entryX=0.5;entryY=0;entryDx=0;entryDy=0;endArrow=none;endFill=0;" edge="1" parent="1" source="-gFtQ6SPpKlM3vbzV3f1-72" target="-gFtQ6SPpKlM3vbzV3f1-60">
          <mxGeometry relative="1" as="geometry" />
        </mxCell>
        <mxCell id="-gFtQ6SPpKlM3vbzV3f1-112" value="N" style="edgeLabel;html=1;align=center;verticalAlign=middle;resizable=0;points=[];fontSize=20;" vertex="1" connectable="0" parent="-gFtQ6SPpKlM3vbzV3f1-94">
          <mxGeometry x="-0.8467" y="1" relative="1" as="geometry">
            <mxPoint x="-1" y="8" as="offset" />
          </mxGeometry>
        </mxCell>
        <mxCell id="-gFtQ6SPpKlM3vbzV3f1-72" value="&lt;font style=&quot;font-size: 16px;&quot;&gt;Offer&lt;/font&gt;" style="shape=rhombus;perimeter=rhombusPerimeter;whiteSpace=wrap;html=1;align=center;" vertex="1" parent="1">
          <mxGeometry x="496.5" y="192" width="115" height="61" as="geometry" />
        </mxCell>
        <mxCell id="-gFtQ6SPpKlM3vbzV3f1-216" style="edgeStyle=orthogonalEdgeStyle;rounded=0;orthogonalLoop=1;jettySize=auto;html=1;exitX=1;exitY=0;exitDx=0;exitDy=0;entryX=0;entryY=0.5;entryDx=0;entryDy=0;endArrow=none;endFill=0;" edge="1" parent="1" source="-gFtQ6SPpKlM3vbzV3f1-73" target="-gFtQ6SPpKlM3vbzV3f1-208">
          <mxGeometry relative="1" as="geometry" />
        </mxCell>
        <mxCell id="-gFtQ6SPpKlM3vbzV3f1-218" style="edgeStyle=orthogonalEdgeStyle;rounded=0;orthogonalLoop=1;jettySize=auto;html=1;exitX=0.5;exitY=0;exitDx=0;exitDy=0;entryX=0;entryY=0.5;entryDx=0;entryDy=0;endArrow=none;endFill=0;" edge="1" parent="1" source="-gFtQ6SPpKlM3vbzV3f1-73" target="-gFtQ6SPpKlM3vbzV3f1-97">
          <mxGeometry relative="1" as="geometry" />
        </mxCell>
        <mxCell id="-gFtQ6SPpKlM3vbzV3f1-223" style="edgeStyle=orthogonalEdgeStyle;rounded=0;orthogonalLoop=1;jettySize=auto;html=1;exitX=0.75;exitY=0;exitDx=0;exitDy=0;entryX=0;entryY=0.5;entryDx=0;entryDy=0;endArrow=none;endFill=0;" edge="1" parent="1" source="-gFtQ6SPpKlM3vbzV3f1-73" target="-gFtQ6SPpKlM3vbzV3f1-95">
          <mxGeometry relative="1" as="geometry" />
        </mxCell>
        <mxCell id="-gFtQ6SPpKlM3vbzV3f1-224" style="edgeStyle=orthogonalEdgeStyle;rounded=0;orthogonalLoop=1;jettySize=auto;html=1;exitX=0.25;exitY=0;exitDx=0;exitDy=0;entryX=0;entryY=0.5;entryDx=0;entryDy=0;endArrow=none;endFill=0;" edge="1" parent="1" source="-gFtQ6SPpKlM3vbzV3f1-73" target="-gFtQ6SPpKlM3vbzV3f1-99">
          <mxGeometry relative="1" as="geometry" />
        </mxCell>
        <mxCell id="-gFtQ6SPpKlM3vbzV3f1-270" style="edgeStyle=orthogonalEdgeStyle;rounded=0;orthogonalLoop=1;jettySize=auto;html=1;exitX=0.75;exitY=1;exitDx=0;exitDy=0;entryX=0.5;entryY=0;entryDx=0;entryDy=0;endArrow=none;endFill=0;" edge="1" parent="1" source="-gFtQ6SPpKlM3vbzV3f1-73" target="-gFtQ6SPpKlM3vbzV3f1-200">
          <mxGeometry relative="1" as="geometry" />
        </mxCell>
        <mxCell id="-gFtQ6SPpKlM3vbzV3f1-356" value="&lt;font style=&quot;font-size: 20px;&quot;&gt;1&lt;/font&gt;" style="edgeLabel;html=1;align=center;verticalAlign=middle;resizable=0;points=[];" vertex="1" connectable="0" parent="-gFtQ6SPpKlM3vbzV3f1-270">
          <mxGeometry x="0.1723" relative="1" as="geometry">
            <mxPoint x="49" y="23" as="offset" />
          </mxGeometry>
        </mxCell>
        <mxCell id="-gFtQ6SPpKlM3vbzV3f1-330" style="edgeStyle=orthogonalEdgeStyle;rounded=0;orthogonalLoop=1;jettySize=auto;html=1;exitX=0;exitY=0.25;exitDx=0;exitDy=0;entryX=0.75;entryY=1;entryDx=0;entryDy=0;endArrow=none;endFill=0;" edge="1" parent="1" source="-gFtQ6SPpKlM3vbzV3f1-73" target="-gFtQ6SPpKlM3vbzV3f1-231">
          <mxGeometry relative="1" as="geometry" />
        </mxCell>
        <mxCell id="-gFtQ6SPpKlM3vbzV3f1-334" style="edgeStyle=orthogonalEdgeStyle;rounded=0;orthogonalLoop=1;jettySize=auto;html=1;exitX=0;exitY=0;exitDx=0;exitDy=0;entryX=1;entryY=0.5;entryDx=0;entryDy=0;endArrow=none;endFill=0;" edge="1" parent="1" source="-gFtQ6SPpKlM3vbzV3f1-73" target="-gFtQ6SPpKlM3vbzV3f1-331">
          <mxGeometry relative="1" as="geometry" />
        </mxCell>
        <mxCell id="-gFtQ6SPpKlM3vbzV3f1-344" value="&lt;font style=&quot;font-size: 20px;&quot;&gt;1&lt;/font&gt;" style="edgeLabel;html=1;align=center;verticalAlign=middle;resizable=0;points=[];rotation=90;" vertex="1" connectable="0" parent="-gFtQ6SPpKlM3vbzV3f1-334">
          <mxGeometry x="0.8067" y="1" relative="1" as="geometry">
            <mxPoint x="-9" y="-21" as="offset" />
          </mxGeometry>
        </mxCell>
        <mxCell id="-gFtQ6SPpKlM3vbzV3f1-73" value="&lt;font style=&quot;font-size: 16px;&quot;&gt;Movie&lt;/font&gt;" style="whiteSpace=wrap;html=1;align=center;" vertex="1" parent="1">
          <mxGeometry x="696" y="202.5" width="100" height="40" as="geometry" />
        </mxCell>
        <mxCell id="-gFtQ6SPpKlM3vbzV3f1-95" value="&lt;font style=&quot;font-size: 16px;&quot;&gt;Length&lt;/font&gt;" style="ellipse;whiteSpace=wrap;html=1;align=center;" vertex="1" parent="1">
          <mxGeometry x="816" y="88" width="100" height="40" as="geometry" />
        </mxCell>
        <mxCell id="-gFtQ6SPpKlM3vbzV3f1-97" value="&lt;font style=&quot;font-size: 16px;&quot;&gt;Title&lt;/font&gt;" style="ellipse;whiteSpace=wrap;html=1;align=center;" vertex="1" parent="1">
          <mxGeometry x="816" y="36" width="100" height="40" as="geometry" />
        </mxCell>
        <mxCell id="-gFtQ6SPpKlM3vbzV3f1-227" style="edgeStyle=orthogonalEdgeStyle;rounded=0;orthogonalLoop=1;jettySize=auto;html=1;exitX=0.5;exitY=0;exitDx=0;exitDy=0;entryX=0.5;entryY=1;entryDx=0;entryDy=0;endArrow=none;endFill=0;" edge="1" parent="1" source="-gFtQ6SPpKlM3vbzV3f1-99" target="-gFtQ6SPpKlM3vbzV3f1-226">
          <mxGeometry relative="1" as="geometry" />
        </mxCell>
        <mxCell id="-gFtQ6SPpKlM3vbzV3f1-229" value="&lt;font style=&quot;font-size: 20px;&quot;&gt;1&lt;/font&gt;" style="edgeLabel;html=1;align=center;verticalAlign=middle;resizable=0;points=[];" vertex="1" connectable="0" parent="-gFtQ6SPpKlM3vbzV3f1-227">
          <mxGeometry x="-0.0526" y="3" relative="1" as="geometry">
            <mxPoint as="offset" />
          </mxGeometry>
        </mxCell>
        <mxCell id="-gFtQ6SPpKlM3vbzV3f1-99" value="&lt;font style=&quot;font-size: 16px;&quot;&gt;MovieID&lt;/font&gt;" style="ellipse;whiteSpace=wrap;html=1;align=center;" vertex="1" parent="1">
          <mxGeometry x="816" y="-10" width="100" height="40" as="geometry" />
        </mxCell>
        <mxCell id="-gFtQ6SPpKlM3vbzV3f1-104" style="edgeStyle=orthogonalEdgeStyle;rounded=0;orthogonalLoop=1;jettySize=auto;html=1;exitX=0;exitY=0.5;exitDx=0;exitDy=0;entryX=1;entryY=0.5;entryDx=0;entryDy=0;endArrow=none;endFill=0;" edge="1" parent="1" source="-gFtQ6SPpKlM3vbzV3f1-103" target="-gFtQ6SPpKlM3vbzV3f1-73">
          <mxGeometry relative="1" as="geometry" />
        </mxCell>
        <mxCell id="-gFtQ6SPpKlM3vbzV3f1-109" value="N" style="edgeLabel;html=1;align=center;verticalAlign=middle;resizable=0;points=[];fontSize=20;" vertex="1" connectable="0" parent="-gFtQ6SPpKlM3vbzV3f1-104">
          <mxGeometry x="-0.2337" y="3" relative="1" as="geometry">
            <mxPoint x="-1" as="offset" />
          </mxGeometry>
        </mxCell>
        <mxCell id="-gFtQ6SPpKlM3vbzV3f1-103" value="&lt;font style=&quot;font-size: 16px;&quot;&gt;Worked&lt;/font&gt;" style="shape=rhombus;perimeter=rhombusPerimeter;whiteSpace=wrap;html=1;align=center;" vertex="1" parent="1">
          <mxGeometry x="868" y="193" width="120" height="60" as="geometry" />
        </mxCell>
        <mxCell id="-gFtQ6SPpKlM3vbzV3f1-107" style="edgeStyle=orthogonalEdgeStyle;rounded=0;orthogonalLoop=1;jettySize=auto;html=1;exitX=0;exitY=0.5;exitDx=0;exitDy=0;entryX=1;entryY=0.5;entryDx=0;entryDy=0;endArrow=none;endFill=0;shape=link;" edge="1" parent="1" source="-gFtQ6SPpKlM3vbzV3f1-106" target="-gFtQ6SPpKlM3vbzV3f1-103">
          <mxGeometry relative="1" as="geometry" />
        </mxCell>
        <mxCell id="-gFtQ6SPpKlM3vbzV3f1-150" value="M" style="edgeLabel;html=1;align=center;verticalAlign=middle;resizable=0;points=[];fontSize=20;" vertex="1" connectable="0" parent="-gFtQ6SPpKlM3vbzV3f1-107">
          <mxGeometry x="-0.0156" y="2" relative="1" as="geometry">
            <mxPoint x="-1" as="offset" />
          </mxGeometry>
        </mxCell>
        <mxCell id="-gFtQ6SPpKlM3vbzV3f1-118" style="edgeStyle=orthogonalEdgeStyle;rounded=0;orthogonalLoop=1;jettySize=auto;html=1;exitX=0.5;exitY=1;exitDx=0;exitDy=0;entryX=1;entryY=0.5;entryDx=0;entryDy=0;endArrow=none;endFill=0;" edge="1" parent="1" source="-gFtQ6SPpKlM3vbzV3f1-106" target="-gFtQ6SPpKlM3vbzV3f1-117">
          <mxGeometry relative="1" as="geometry" />
        </mxCell>
        <mxCell id="-gFtQ6SPpKlM3vbzV3f1-367" style="edgeStyle=orthogonalEdgeStyle;rounded=0;orthogonalLoop=1;jettySize=auto;html=1;exitX=1;exitY=0.5;exitDx=0;exitDy=0;entryX=0;entryY=0.5;entryDx=0;entryDy=0;endArrow=none;endFill=0;" edge="1" parent="1" source="-gFtQ6SPpKlM3vbzV3f1-106" target="-gFtQ6SPpKlM3vbzV3f1-366">
          <mxGeometry relative="1" as="geometry" />
        </mxCell>
        <mxCell id="-gFtQ6SPpKlM3vbzV3f1-106" value="&lt;font style=&quot;font-size: 16px;&quot;&gt;Personell&lt;/font&gt;" style="whiteSpace=wrap;html=1;align=center;" vertex="1" parent="1">
          <mxGeometry x="1108" y="202.5" width="100" height="40" as="geometry" />
        </mxCell>
        <mxCell id="-gFtQ6SPpKlM3vbzV3f1-348" style="edgeStyle=orthogonalEdgeStyle;rounded=0;orthogonalLoop=1;jettySize=auto;html=1;exitX=0.5;exitY=0;exitDx=0;exitDy=0;entryX=0.5;entryY=1;entryDx=0;entryDy=0;endArrow=none;endFill=0;" edge="1" parent="1" source="-gFtQ6SPpKlM3vbzV3f1-114" target="-gFtQ6SPpKlM3vbzV3f1-347">
          <mxGeometry relative="1" as="geometry" />
        </mxCell>
        <mxCell id="-gFtQ6SPpKlM3vbzV3f1-114" value="&lt;font style=&quot;font-size: 16px;&quot;&gt;Actor&lt;/font&gt;" style="ellipse;whiteSpace=wrap;html=1;align=center;" vertex="1" parent="1">
          <mxGeometry x="1108" y="-40" width="100" height="40" as="geometry" />
        </mxCell>
        <mxCell id="-gFtQ6SPpKlM3vbzV3f1-115" value="&lt;font style=&quot;font-size: 16px;&quot;&gt;Director&lt;/font&gt;" style="ellipse;whiteSpace=wrap;html=1;align=center;" vertex="1" parent="1">
          <mxGeometry x="1260" y="54" width="100" height="40" as="geometry" />
        </mxCell>
        <mxCell id="-gFtQ6SPpKlM3vbzV3f1-116" value="&lt;font style=&quot;font-size: 16px;&quot;&gt;Producer&lt;/font&gt;" style="ellipse;whiteSpace=wrap;html=1;align=center;" vertex="1" parent="1">
          <mxGeometry x="972" y="54" width="100" height="40" as="geometry" />
        </mxCell>
        <mxCell id="-gFtQ6SPpKlM3vbzV3f1-117" value="&lt;font style=&quot;font-size: 16px;&quot;&gt;&lt;u&gt;ActorID&lt;/u&gt;&lt;/font&gt;" style="ellipse;whiteSpace=wrap;html=1;align=center;" vertex="1" parent="1">
          <mxGeometry x="956" y="268" width="100" height="40" as="geometry" />
        </mxCell>
        <mxCell id="-gFtQ6SPpKlM3vbzV3f1-141" value="" style="edgeStyle=orthogonalEdgeStyle;rounded=0;orthogonalLoop=1;jettySize=auto;html=1;exitX=0.5;exitY=0;exitDx=0;exitDy=0;endArrow=none;endFill=0;shape=link;" edge="1" parent="1" source="-gFtQ6SPpKlM3vbzV3f1-106" target="-gFtQ6SPpKlM3vbzV3f1-140">
          <mxGeometry relative="1" as="geometry">
            <mxPoint x="1106" y="197" as="sourcePoint" />
            <mxPoint x="1106" y="96" as="targetPoint" />
          </mxGeometry>
        </mxCell>
        <mxCell id="-gFtQ6SPpKlM3vbzV3f1-159" value="N" style="edgeLabel;html=1;align=center;verticalAlign=middle;resizable=0;points=[];fontSize=20;" vertex="1" connectable="0" parent="-gFtQ6SPpKlM3vbzV3f1-141">
          <mxGeometry x="0.1907" relative="1" as="geometry">
            <mxPoint y="-20" as="offset" />
          </mxGeometry>
        </mxCell>
        <mxCell id="-gFtQ6SPpKlM3vbzV3f1-145" style="edgeStyle=orthogonalEdgeStyle;rounded=0;orthogonalLoop=1;jettySize=auto;html=1;exitX=0;exitY=0.5;exitDx=0;exitDy=0;entryX=1;entryY=0.5;entryDx=0;entryDy=0;endArrow=none;endFill=0;" edge="1" parent="1" source="-gFtQ6SPpKlM3vbzV3f1-140" target="-gFtQ6SPpKlM3vbzV3f1-116">
          <mxGeometry relative="1" as="geometry" />
        </mxCell>
        <mxCell id="-gFtQ6SPpKlM3vbzV3f1-158" value="1" style="edgeLabel;html=1;align=center;verticalAlign=middle;resizable=0;points=[];fontSize=20;" vertex="1" connectable="0" parent="-gFtQ6SPpKlM3vbzV3f1-145">
          <mxGeometry x="-0.0614" y="2" relative="1" as="geometry">
            <mxPoint as="offset" />
          </mxGeometry>
        </mxCell>
        <mxCell id="-gFtQ6SPpKlM3vbzV3f1-146" style="edgeStyle=orthogonalEdgeStyle;rounded=0;orthogonalLoop=1;jettySize=auto;html=1;exitX=1;exitY=0.5;exitDx=0;exitDy=0;entryX=0;entryY=0.5;entryDx=0;entryDy=0;endArrow=none;endFill=0;" edge="1" parent="1" source="-gFtQ6SPpKlM3vbzV3f1-140" target="-gFtQ6SPpKlM3vbzV3f1-115">
          <mxGeometry relative="1" as="geometry" />
        </mxCell>
        <mxCell id="-gFtQ6SPpKlM3vbzV3f1-157" value="1" style="edgeLabel;html=1;align=center;verticalAlign=middle;resizable=0;points=[];fontSize=20;" vertex="1" connectable="0" parent="-gFtQ6SPpKlM3vbzV3f1-146">
          <mxGeometry x="-0.1793" y="1" relative="1" as="geometry">
            <mxPoint as="offset" />
          </mxGeometry>
        </mxCell>
        <mxCell id="-gFtQ6SPpKlM3vbzV3f1-147" style="edgeStyle=orthogonalEdgeStyle;rounded=0;orthogonalLoop=1;jettySize=auto;html=1;exitX=0.5;exitY=0;exitDx=0;exitDy=0;entryX=0.5;entryY=1;entryDx=0;entryDy=0;endArrow=none;endFill=0;" edge="1" parent="1" source="-gFtQ6SPpKlM3vbzV3f1-140" target="-gFtQ6SPpKlM3vbzV3f1-114">
          <mxGeometry relative="1" as="geometry" />
        </mxCell>
        <mxCell id="-gFtQ6SPpKlM3vbzV3f1-156" value="1" style="edgeLabel;html=1;align=center;verticalAlign=middle;resizable=0;points=[];fontSize=20;" vertex="1" connectable="0" parent="-gFtQ6SPpKlM3vbzV3f1-147">
          <mxGeometry x="-0.0435" y="2" relative="1" as="geometry">
            <mxPoint as="offset" />
          </mxGeometry>
        </mxCell>
        <mxCell id="-gFtQ6SPpKlM3vbzV3f1-140" value="Role" style="shape=rhombus;perimeter=rhombusPerimeter;whiteSpace=wrap;html=1;align=center;" vertex="1" parent="1">
          <mxGeometry x="1098" y="44" width="120" height="60" as="geometry" />
        </mxCell>
        <mxCell id="-gFtQ6SPpKlM3vbzV3f1-287" style="edgeStyle=orthogonalEdgeStyle;rounded=0;orthogonalLoop=1;jettySize=auto;html=1;exitX=1;exitY=0.5;exitDx=0;exitDy=0;entryX=0.5;entryY=0;entryDx=0;entryDy=0;endArrow=none;endFill=0;" edge="1" parent="1" source="-gFtQ6SPpKlM3vbzV3f1-160" target="-gFtQ6SPpKlM3vbzV3f1-372">
          <mxGeometry relative="1" as="geometry" />
        </mxCell>
        <mxCell id="-gFtQ6SPpKlM3vbzV3f1-291" value="&lt;font style=&quot;font-size: 20px;&quot;&gt;1&lt;/font&gt;" style="edgeLabel;html=1;align=center;verticalAlign=middle;resizable=0;points=[];" vertex="1" connectable="0" parent="-gFtQ6SPpKlM3vbzV3f1-287">
          <mxGeometry x="-0.6419" y="1" relative="1" as="geometry">
            <mxPoint x="-1" y="2" as="offset" />
          </mxGeometry>
        </mxCell>
        <mxCell id="-gFtQ6SPpKlM3vbzV3f1-160" value="&lt;font style=&quot;font-size: 16px;&quot;&gt;Has&lt;/font&gt;" style="shape=rhombus;perimeter=rhombusPerimeter;whiteSpace=wrap;html=1;align=center;" vertex="1" parent="1">
          <mxGeometry x="374" y="470" width="120" height="60" as="geometry" />
        </mxCell>
        <mxCell id="-gFtQ6SPpKlM3vbzV3f1-163" value="&lt;font style=&quot;font-size: 20px;&quot;&gt;Manager&lt;/font&gt;" style="ellipse;whiteSpace=wrap;html=1;align=center;" vertex="1" parent="1">
          <mxGeometry x="394" y="700" width="100" height="40" as="geometry" />
        </mxCell>
        <mxCell id="-gFtQ6SPpKlM3vbzV3f1-165" value="&lt;font style=&quot;font-size: 20px;&quot;&gt;Salesman&lt;/font&gt;" style="ellipse;whiteSpace=wrap;html=1;align=center;" vertex="1" parent="1">
          <mxGeometry x="396.5" y="744" width="100" height="40" as="geometry" />
        </mxCell>
        <mxCell id="-gFtQ6SPpKlM3vbzV3f1-167" value="&lt;font style=&quot;font-size: 20px;&quot;&gt;Janitor&lt;/font&gt;" style="ellipse;whiteSpace=wrap;html=1;align=center;" vertex="1" parent="1">
          <mxGeometry x="404" y="864" width="100" height="40" as="geometry" />
        </mxCell>
        <mxCell id="-gFtQ6SPpKlM3vbzV3f1-171" value="&lt;font style=&quot;font-size: 20px;&quot;&gt;Store Clerk&lt;/font&gt;" style="ellipse;whiteSpace=wrap;html=1;align=center;" vertex="1" parent="1">
          <mxGeometry x="396.5" y="804" width="120" height="48" as="geometry" />
        </mxCell>
        <mxCell id="-gFtQ6SPpKlM3vbzV3f1-178" value="&lt;font style=&quot;font-size: 20px;&quot;&gt;&lt;u&gt;MemberID&lt;/u&gt;&lt;/font&gt;" style="ellipse;whiteSpace=wrap;html=1;align=center;" vertex="1" parent="1">
          <mxGeometry x="346" y="348" width="120" height="36" as="geometry" />
        </mxCell>
        <mxCell id="-gFtQ6SPpKlM3vbzV3f1-186" value="&lt;font style=&quot;font-size: 20px;&quot;&gt;&lt;u&gt;GenreID&lt;/u&gt;&lt;/font&gt;" style="ellipse;whiteSpace=wrap;html=1;align=center;" vertex="1" parent="1">
          <mxGeometry x="988" y="424" width="100" height="40" as="geometry" />
        </mxCell>
        <mxCell id="-gFtQ6SPpKlM3vbzV3f1-193" style="edgeStyle=orthogonalEdgeStyle;rounded=0;orthogonalLoop=1;jettySize=auto;html=1;exitX=1;exitY=0.5;exitDx=0;exitDy=0;entryX=0;entryY=0.5;entryDx=0;entryDy=0;endArrow=none;endFill=0;" edge="1" parent="1" source="-gFtQ6SPpKlM3vbzV3f1-191" target="-gFtQ6SPpKlM3vbzV3f1-186">
          <mxGeometry relative="1" as="geometry" />
        </mxCell>
        <mxCell id="-gFtQ6SPpKlM3vbzV3f1-195" style="edgeStyle=orthogonalEdgeStyle;rounded=0;orthogonalLoop=1;jettySize=auto;html=1;exitX=0.75;exitY=1;exitDx=0;exitDy=0;entryX=0;entryY=0.5;entryDx=0;entryDy=0;endArrow=none;endFill=0;" edge="1" parent="1" source="-gFtQ6SPpKlM3vbzV3f1-191" target="-gFtQ6SPpKlM3vbzV3f1-194">
          <mxGeometry relative="1" as="geometry" />
        </mxCell>
        <mxCell id="-gFtQ6SPpKlM3vbzV3f1-197" style="edgeStyle=orthogonalEdgeStyle;rounded=0;orthogonalLoop=1;jettySize=auto;html=1;exitX=0.5;exitY=1;exitDx=0;exitDy=0;entryX=0;entryY=0.5;entryDx=0;entryDy=0;endArrow=none;endFill=0;" edge="1" parent="1" source="-gFtQ6SPpKlM3vbzV3f1-191" target="-gFtQ6SPpKlM3vbzV3f1-196">
          <mxGeometry relative="1" as="geometry" />
        </mxCell>
        <mxCell id="-gFtQ6SPpKlM3vbzV3f1-199" style="edgeStyle=orthogonalEdgeStyle;rounded=0;orthogonalLoop=1;jettySize=auto;html=1;exitX=0.25;exitY=1;exitDx=0;exitDy=0;entryX=0;entryY=0.5;entryDx=0;entryDy=0;endArrow=none;endFill=0;" edge="1" parent="1" source="-gFtQ6SPpKlM3vbzV3f1-191" target="-gFtQ6SPpKlM3vbzV3f1-198">
          <mxGeometry relative="1" as="geometry" />
        </mxCell>
        <mxCell id="-gFtQ6SPpKlM3vbzV3f1-191" value="&lt;font style=&quot;font-size: 20px;&quot;&gt;Genre&lt;/font&gt;" style="whiteSpace=wrap;html=1;align=center;" vertex="1" parent="1">
          <mxGeometry x="862" y="424" width="100" height="40" as="geometry" />
        </mxCell>
        <mxCell id="-gFtQ6SPpKlM3vbzV3f1-194" value="&lt;font style=&quot;font-size: 20px;&quot;&gt;Horror&lt;/font&gt;" style="ellipse;whiteSpace=wrap;html=1;align=center;" vertex="1" parent="1">
          <mxGeometry x="988" y="480" width="100" height="40" as="geometry" />
        </mxCell>
        <mxCell id="-gFtQ6SPpKlM3vbzV3f1-196" value="&lt;font style=&quot;font-size: 20px;&quot;&gt;Comedy&lt;/font&gt;" style="ellipse;whiteSpace=wrap;html=1;align=center;" vertex="1" parent="1">
          <mxGeometry x="988" y="530" width="100" height="40" as="geometry" />
        </mxCell>
        <mxCell id="-gFtQ6SPpKlM3vbzV3f1-198" value="&lt;font style=&quot;font-size: 20px;&quot;&gt;Sci-Fi&lt;/font&gt;" style="ellipse;whiteSpace=wrap;html=1;align=center;" vertex="1" parent="1">
          <mxGeometry x="988" y="588" width="100" height="40" as="geometry" />
        </mxCell>
        <mxCell id="-gFtQ6SPpKlM3vbzV3f1-272" style="edgeStyle=orthogonalEdgeStyle;rounded=0;orthogonalLoop=1;jettySize=auto;html=1;exitX=0.5;exitY=1;exitDx=0;exitDy=0;entryX=0.5;entryY=0;entryDx=0;entryDy=0;endArrow=none;endFill=0;" edge="1" parent="1" source="-gFtQ6SPpKlM3vbzV3f1-200" target="-gFtQ6SPpKlM3vbzV3f1-191">
          <mxGeometry relative="1" as="geometry" />
        </mxCell>
        <mxCell id="-gFtQ6SPpKlM3vbzV3f1-357" value="&lt;font style=&quot;font-size: 20px;&quot;&gt;N&lt;/font&gt;" style="edgeLabel;html=1;align=center;verticalAlign=middle;resizable=0;points=[];" vertex="1" connectable="0" parent="-gFtQ6SPpKlM3vbzV3f1-272">
          <mxGeometry x="-0.026" y="3" relative="1" as="geometry">
            <mxPoint x="-3" y="-7" as="offset" />
          </mxGeometry>
        </mxCell>
        <mxCell id="-gFtQ6SPpKlM3vbzV3f1-200" value="&lt;font style=&quot;font-size: 20px;&quot;&gt;Has a&lt;/font&gt;" style="shape=rhombus;perimeter=rhombusPerimeter;whiteSpace=wrap;html=1;align=center;" vertex="1" parent="1">
          <mxGeometry x="852" y="320" width="120" height="60" as="geometry" />
        </mxCell>
        <mxCell id="-gFtQ6SPpKlM3vbzV3f1-208" value="&lt;font style=&quot;font-size: 16px;&quot;&gt;Price&lt;/font&gt;" style="ellipse;whiteSpace=wrap;html=1;align=center;" vertex="1" parent="1">
          <mxGeometry x="816" y="136" width="100" height="40" as="geometry" />
        </mxCell>
        <mxCell id="-gFtQ6SPpKlM3vbzV3f1-220" value="&lt;font style=&quot;font-size: 16px;&quot;&gt;Balance&lt;/font&gt;" style="ellipse;whiteSpace=wrap;html=1;align=center;" vertex="1" parent="1">
          <mxGeometry x="816" y="-192" width="100" height="40" as="geometry" />
        </mxCell>
        <mxCell id="-gFtQ6SPpKlM3vbzV3f1-228" style="edgeStyle=orthogonalEdgeStyle;rounded=0;orthogonalLoop=1;jettySize=auto;html=1;exitX=0.5;exitY=0;exitDx=0;exitDy=0;entryX=0.5;entryY=1;entryDx=0;entryDy=0;endArrow=none;endFill=0;" edge="1" parent="1" source="-gFtQ6SPpKlM3vbzV3f1-226" target="-gFtQ6SPpKlM3vbzV3f1-220">
          <mxGeometry relative="1" as="geometry" />
        </mxCell>
        <mxCell id="-gFtQ6SPpKlM3vbzV3f1-230" value="&lt;font style=&quot;font-size: 20px;&quot;&gt;N&lt;/font&gt;" style="edgeLabel;html=1;align=center;verticalAlign=middle;resizable=0;points=[];" vertex="1" connectable="0" parent="-gFtQ6SPpKlM3vbzV3f1-228">
          <mxGeometry x="0.1029" y="1" relative="1" as="geometry">
            <mxPoint as="offset" />
          </mxGeometry>
        </mxCell>
        <mxCell id="-gFtQ6SPpKlM3vbzV3f1-226" value="&lt;font style=&quot;font-size: 16px;&quot;&gt;Has&lt;/font&gt;" style="shape=rhombus;perimeter=rhombusPerimeter;whiteSpace=wrap;html=1;align=center;" vertex="1" parent="1">
          <mxGeometry x="807" y="-108" width="118" height="60" as="geometry" />
        </mxCell>
        <mxCell id="-gFtQ6SPpKlM3vbzV3f1-246" style="edgeStyle=orthogonalEdgeStyle;rounded=0;orthogonalLoop=1;jettySize=auto;html=1;exitX=0.5;exitY=0;exitDx=0;exitDy=0;entryX=0.5;entryY=1;entryDx=0;entryDy=0;endArrow=none;endFill=0;" edge="1" parent="1" source="-gFtQ6SPpKlM3vbzV3f1-231" target="-gFtQ6SPpKlM3vbzV3f1-237">
          <mxGeometry relative="1" as="geometry" />
        </mxCell>
        <mxCell id="-gFtQ6SPpKlM3vbzV3f1-248" value="&lt;font style=&quot;font-size: 20px;&quot;&gt;1&lt;/font&gt;" style="edgeLabel;html=1;align=center;verticalAlign=middle;resizable=0;points=[];" vertex="1" connectable="0" parent="-gFtQ6SPpKlM3vbzV3f1-246">
          <mxGeometry x="0.0588" y="2" relative="1" as="geometry">
            <mxPoint as="offset" />
          </mxGeometry>
        </mxCell>
        <mxCell id="-gFtQ6SPpKlM3vbzV3f1-231" value="&lt;font style=&quot;font-size: 16px;&quot;&gt;Shelf&lt;/font&gt;" style="shape=ext;margin=3;double=1;whiteSpace=wrap;html=1;align=center;" vertex="1" parent="1">
          <mxGeometry x="534" y="107" width="100" height="40" as="geometry" />
        </mxCell>
        <mxCell id="-gFtQ6SPpKlM3vbzV3f1-247" style="edgeStyle=orthogonalEdgeStyle;rounded=0;orthogonalLoop=1;jettySize=auto;html=1;exitX=0.5;exitY=0;exitDx=0;exitDy=0;entryX=0.5;entryY=1;entryDx=0;entryDy=0;endArrow=none;endFill=0;" edge="1" parent="1" source="-gFtQ6SPpKlM3vbzV3f1-237" target="-gFtQ6SPpKlM3vbzV3f1-358">
          <mxGeometry relative="1" as="geometry">
            <mxPoint x="584" y="-48" as="targetPoint" />
          </mxGeometry>
        </mxCell>
        <mxCell id="-gFtQ6SPpKlM3vbzV3f1-249" value="&lt;font style=&quot;font-size: 20px;&quot;&gt;1&lt;/font&gt;" style="edgeLabel;html=1;align=center;verticalAlign=middle;resizable=0;points=[];" vertex="1" connectable="0" parent="-gFtQ6SPpKlM3vbzV3f1-247">
          <mxGeometry relative="1" as="geometry">
            <mxPoint as="offset" />
          </mxGeometry>
        </mxCell>
        <mxCell id="-gFtQ6SPpKlM3vbzV3f1-237" value="&lt;font style=&quot;font-size: 16px;&quot;&gt;Has&lt;/font&gt;" style="shape=rhombus;double=1;perimeter=rhombusPerimeter;whiteSpace=wrap;html=1;align=center;" vertex="1" parent="1">
          <mxGeometry x="524" width="120" height="60" as="geometry" />
        </mxCell>
        <mxCell id="-gFtQ6SPpKlM3vbzV3f1-280" style="edgeStyle=orthogonalEdgeStyle;rounded=0;orthogonalLoop=1;jettySize=auto;html=1;exitX=0.5;exitY=1;exitDx=0;exitDy=0;entryX=0.5;entryY=0;entryDx=0;entryDy=0;endArrow=none;endFill=0;" edge="1" parent="1" source="-gFtQ6SPpKlM3vbzV3f1-250" target="-gFtQ6SPpKlM3vbzV3f1-265">
          <mxGeometry relative="1" as="geometry" />
        </mxCell>
        <mxCell id="-gFtQ6SPpKlM3vbzV3f1-250" value="&lt;font style=&quot;font-size: 20px;&quot;&gt;Balance&lt;/font&gt;" style="ellipse;whiteSpace=wrap;html=1;align=center;" vertex="1" parent="1">
          <mxGeometry x="-36" y="676" width="112" height="52" as="geometry" />
        </mxCell>
        <mxCell id="-gFtQ6SPpKlM3vbzV3f1-276" style="edgeStyle=orthogonalEdgeStyle;rounded=0;orthogonalLoop=1;jettySize=auto;html=1;exitX=0;exitY=0.5;exitDx=0;exitDy=0;entryX=1;entryY=0.5;entryDx=0;entryDy=0;endArrow=none;endFill=0;" edge="1" parent="1" source="-gFtQ6SPpKlM3vbzV3f1-251" target="-gFtQ6SPpKlM3vbzV3f1-250">
          <mxGeometry relative="1" as="geometry" />
        </mxCell>
        <mxCell id="-gFtQ6SPpKlM3vbzV3f1-278" value="&lt;font style=&quot;font-size: 20px;&quot;&gt;N&lt;/font&gt;" style="edgeLabel;html=1;align=center;verticalAlign=middle;resizable=0;points=[];" vertex="1" connectable="0" parent="-gFtQ6SPpKlM3vbzV3f1-276">
          <mxGeometry x="-0.1858" y="2" relative="1" as="geometry">
            <mxPoint as="offset" />
          </mxGeometry>
        </mxCell>
        <mxCell id="-gFtQ6SPpKlM3vbzV3f1-251" value="&lt;span style=&quot;font-size: 20px;&quot;&gt;Check&lt;/span&gt;" style="shape=rhombus;perimeter=rhombusPerimeter;whiteSpace=wrap;html=1;align=center;" vertex="1" parent="1">
          <mxGeometry x="114" y="672" width="102" height="60" as="geometry" />
        </mxCell>
        <mxCell id="-gFtQ6SPpKlM3vbzV3f1-281" style="edgeStyle=orthogonalEdgeStyle;rounded=0;orthogonalLoop=1;jettySize=auto;html=1;exitX=0.5;exitY=1;exitDx=0;exitDy=0;entryX=0.5;entryY=0;entryDx=0;entryDy=0;endArrow=none;endFill=0;" edge="1" parent="1" source="-gFtQ6SPpKlM3vbzV3f1-265" target="-gFtQ6SPpKlM3vbzV3f1-267">
          <mxGeometry relative="1" as="geometry" />
        </mxCell>
        <mxCell id="-gFtQ6SPpKlM3vbzV3f1-265" value="&lt;font style=&quot;font-size: 16px;&quot;&gt;Available&lt;/font&gt;" style="ellipse;whiteSpace=wrap;html=1;align=center;" vertex="1" parent="1">
          <mxGeometry x="-30" y="768" width="100" height="40" as="geometry" />
        </mxCell>
        <mxCell id="-gFtQ6SPpKlM3vbzV3f1-267" value="&lt;font style=&quot;font-size: 16px;&quot;&gt;Unavailable&lt;/font&gt;" style="ellipse;whiteSpace=wrap;html=1;align=center;dashed=1;" vertex="1" parent="1">
          <mxGeometry x="-30" y="840" width="100" height="40" as="geometry" />
        </mxCell>
        <mxCell id="-gFtQ6SPpKlM3vbzV3f1-316" style="edgeStyle=orthogonalEdgeStyle;rounded=0;orthogonalLoop=1;jettySize=auto;html=1;exitX=0.5;exitY=1;exitDx=0;exitDy=0;entryX=0;entryY=0.5;entryDx=0;entryDy=0;endArrow=none;endFill=0;" edge="1" parent="1" source="-gFtQ6SPpKlM3vbzV3f1-300" target="-gFtQ6SPpKlM3vbzV3f1-308">
          <mxGeometry relative="1" as="geometry" />
        </mxCell>
        <mxCell id="-gFtQ6SPpKlM3vbzV3f1-319" value="&lt;font style=&quot;font-size: 20px;&quot;&gt;N&lt;/font&gt;" style="edgeLabel;html=1;align=center;verticalAlign=middle;resizable=0;points=[];" vertex="1" connectable="0" parent="-gFtQ6SPpKlM3vbzV3f1-316">
          <mxGeometry x="-0.1781" y="2" relative="1" as="geometry">
            <mxPoint y="-31" as="offset" />
          </mxGeometry>
        </mxCell>
        <mxCell id="-gFtQ6SPpKlM3vbzV3f1-300" value="&lt;span style=&quot;font-size: 16px;&quot;&gt;Make&lt;/span&gt;" style="shape=rhombus;perimeter=rhombusPerimeter;whiteSpace=wrap;html=1;align=center;" vertex="1" parent="1">
          <mxGeometry x="676" y="324" width="120" height="60" as="geometry" />
        </mxCell>
        <mxCell id="-gFtQ6SPpKlM3vbzV3f1-314" style="edgeStyle=orthogonalEdgeStyle;rounded=0;orthogonalLoop=1;jettySize=auto;html=1;exitX=0.5;exitY=1;exitDx=0;exitDy=0;entryX=0.5;entryY=0;entryDx=0;entryDy=0;endArrow=none;endFill=0;" edge="1" parent="1" source="-gFtQ6SPpKlM3vbzV3f1-308" target="-gFtQ6SPpKlM3vbzV3f1-313">
          <mxGeometry relative="1" as="geometry" />
        </mxCell>
        <mxCell id="-gFtQ6SPpKlM3vbzV3f1-317" style="edgeStyle=orthogonalEdgeStyle;rounded=0;orthogonalLoop=1;jettySize=auto;html=1;exitX=0.5;exitY=0;exitDx=0;exitDy=0;entryX=0.5;entryY=1;entryDx=0;entryDy=0;endArrow=none;endFill=0;" edge="1" parent="1" source="-gFtQ6SPpKlM3vbzV3f1-308" target="-gFtQ6SPpKlM3vbzV3f1-311">
          <mxGeometry relative="1" as="geometry" />
        </mxCell>
        <mxCell id="-gFtQ6SPpKlM3vbzV3f1-308" value="Reservation" style="shape=ext;margin=3;double=1;whiteSpace=wrap;html=1;align=center;" vertex="1" parent="1">
          <mxGeometry x="752" y="464" width="100" height="40" as="geometry" />
        </mxCell>
        <mxCell id="-gFtQ6SPpKlM3vbzV3f1-311" value="&lt;font style=&quot;font-size: 16px;&quot;&gt;Date&lt;/font&gt;" style="ellipse;whiteSpace=wrap;html=1;align=center;" vertex="1" parent="1">
          <mxGeometry x="752" y="384" width="100" height="40" as="geometry" />
        </mxCell>
        <mxCell id="-gFtQ6SPpKlM3vbzV3f1-313" value="&lt;font style=&quot;font-size: 16px;&quot;&gt;Expiration date&lt;/font&gt;" style="ellipse;whiteSpace=wrap;html=1;align=center;" vertex="1" parent="1">
          <mxGeometry x="749" y="539" width="106" height="46" as="geometry" />
        </mxCell>
        <mxCell id="-gFtQ6SPpKlM3vbzV3f1-320" value="&lt;font style=&quot;font-size: 16px;&quot;&gt;Name&lt;/font&gt;" style="ellipse;whiteSpace=wrap;html=1;align=center;" vertex="1" parent="1">
          <mxGeometry x="624" y="384" width="100" height="40" as="geometry" />
        </mxCell>
        <mxCell id="-gFtQ6SPpKlM3vbzV3f1-325" value="&lt;font style=&quot;font-size: 16px;&quot;&gt;Adress&lt;/font&gt;" style="ellipse;whiteSpace=wrap;html=1;align=center;" vertex="1" parent="1">
          <mxGeometry x="624" y="440" width="100" height="40" as="geometry" />
        </mxCell>
        <mxCell id="-gFtQ6SPpKlM3vbzV3f1-328" value="&lt;font style=&quot;font-size: 16px;&quot;&gt;Join Date&lt;/font&gt;" style="ellipse;whiteSpace=wrap;html=1;align=center;" vertex="1" parent="1">
          <mxGeometry x="624" y="499" width="100" height="40" as="geometry" />
        </mxCell>
        <mxCell id="-gFtQ6SPpKlM3vbzV3f1-337" style="edgeStyle=orthogonalEdgeStyle;rounded=0;orthogonalLoop=1;jettySize=auto;html=1;exitX=0.5;exitY=0;exitDx=0;exitDy=0;entryX=0.5;entryY=1;entryDx=0;entryDy=0;endArrow=none;endFill=0;" edge="1" parent="1" source="-gFtQ6SPpKlM3vbzV3f1-331" target="-gFtQ6SPpKlM3vbzV3f1-336">
          <mxGeometry relative="1" as="geometry" />
        </mxCell>
        <mxCell id="-gFtQ6SPpKlM3vbzV3f1-345" value="&lt;font style=&quot;font-size: 20px;&quot;&gt;1&lt;/font&gt;" style="edgeLabel;html=1;align=center;verticalAlign=middle;resizable=0;points=[];" vertex="1" connectable="0" parent="-gFtQ6SPpKlM3vbzV3f1-337">
          <mxGeometry x="-0.1349" y="3" relative="1" as="geometry">
            <mxPoint y="9" as="offset" />
          </mxGeometry>
        </mxCell>
        <mxCell id="-gFtQ6SPpKlM3vbzV3f1-331" value="&lt;font style=&quot;font-size: 16px;&quot;&gt;Can&lt;/font&gt;" style="shape=rhombus;perimeter=rhombusPerimeter;whiteSpace=wrap;html=1;align=center;" vertex="1" parent="1">
          <mxGeometry x="556" y="-228" width="120" height="60" as="geometry" />
        </mxCell>
        <mxCell id="-gFtQ6SPpKlM3vbzV3f1-340" style="edgeStyle=orthogonalEdgeStyle;rounded=0;orthogonalLoop=1;jettySize=auto;html=1;exitX=0.75;exitY=0;exitDx=0;exitDy=0;entryX=0;entryY=0.5;entryDx=0;entryDy=0;endArrow=none;endFill=0;" edge="1" parent="1" source="-gFtQ6SPpKlM3vbzV3f1-336" target="-gFtQ6SPpKlM3vbzV3f1-339">
          <mxGeometry relative="1" as="geometry" />
        </mxCell>
        <mxCell id="-gFtQ6SPpKlM3vbzV3f1-342" style="edgeStyle=orthogonalEdgeStyle;rounded=0;orthogonalLoop=1;jettySize=auto;html=1;exitX=0.5;exitY=0;exitDx=0;exitDy=0;entryX=0;entryY=0.5;entryDx=0;entryDy=0;endArrow=none;endFill=0;" edge="1" parent="1" source="-gFtQ6SPpKlM3vbzV3f1-336" target="-gFtQ6SPpKlM3vbzV3f1-341">
          <mxGeometry relative="1" as="geometry" />
        </mxCell>
        <mxCell id="-gFtQ6SPpKlM3vbzV3f1-336" value="&lt;font style=&quot;font-size: 16px;&quot;&gt;Rent&lt;/font&gt;" style="shape=ext;margin=3;double=1;whiteSpace=wrap;html=1;align=center;" vertex="1" parent="1">
          <mxGeometry x="566" y="-336" width="100" height="40" as="geometry" />
        </mxCell>
        <mxCell id="-gFtQ6SPpKlM3vbzV3f1-339" value="&lt;font style=&quot;font-size: 16px;&quot;&gt;Date&lt;/font&gt;" style="ellipse;whiteSpace=wrap;html=1;align=center;" vertex="1" parent="1">
          <mxGeometry x="666" y="-396" width="100" height="40" as="geometry" />
        </mxCell>
        <mxCell id="-gFtQ6SPpKlM3vbzV3f1-341" value="&lt;font style=&quot;font-size: 16px;&quot;&gt;Return Date&lt;/font&gt;" style="ellipse;whiteSpace=wrap;html=1;align=center;" vertex="1" parent="1">
          <mxGeometry x="656" y="-456" width="120" height="40" as="geometry" />
        </mxCell>
        <mxCell id="-gFtQ6SPpKlM3vbzV3f1-347" value="&lt;font style=&quot;font-size: 16px;&quot;&gt;Extra&lt;/font&gt;" style="ellipse;whiteSpace=wrap;html=1;align=center;" vertex="1" parent="1">
          <mxGeometry x="1108" y="-128" width="100" height="40" as="geometry" />
        </mxCell>
        <mxCell id="-gFtQ6SPpKlM3vbzV3f1-352" style="edgeStyle=orthogonalEdgeStyle;rounded=0;orthogonalLoop=1;jettySize=auto;html=1;exitX=0.5;exitY=0;exitDx=0;exitDy=0;entryX=0.5;entryY=1;entryDx=0;entryDy=0;endArrow=none;endFill=0;" edge="1" parent="1" source="-gFtQ6SPpKlM3vbzV3f1-349" target="-gFtQ6SPpKlM3vbzV3f1-28">
          <mxGeometry relative="1" as="geometry" />
        </mxCell>
        <mxCell id="-gFtQ6SPpKlM3vbzV3f1-353" style="edgeStyle=orthogonalEdgeStyle;rounded=0;orthogonalLoop=1;jettySize=auto;html=1;exitX=0;exitY=0;exitDx=0;exitDy=0;entryX=0.5;entryY=1;entryDx=0;entryDy=0;endArrow=none;endFill=0;" edge="1" parent="1" source="-gFtQ6SPpKlM3vbzV3f1-349" target="-gFtQ6SPpKlM3vbzV3f1-19">
          <mxGeometry relative="1" as="geometry" />
        </mxCell>
        <mxCell id="-gFtQ6SPpKlM3vbzV3f1-354" style="edgeStyle=orthogonalEdgeStyle;rounded=0;orthogonalLoop=1;jettySize=auto;html=1;exitX=0;exitY=1;exitDx=0;exitDy=0;entryX=0.5;entryY=0;entryDx=0;entryDy=0;endArrow=none;endFill=0;" edge="1" parent="1" source="-gFtQ6SPpKlM3vbzV3f1-349" target="-gFtQ6SPpKlM3vbzV3f1-18">
          <mxGeometry relative="1" as="geometry" />
        </mxCell>
        <mxCell id="-gFtQ6SPpKlM3vbzV3f1-355" style="edgeStyle=orthogonalEdgeStyle;rounded=0;orthogonalLoop=1;jettySize=auto;html=1;exitX=0.5;exitY=1;exitDx=0;exitDy=0;entryX=0.5;entryY=0;entryDx=0;entryDy=0;endArrow=none;endFill=0;" edge="1" parent="1" source="-gFtQ6SPpKlM3vbzV3f1-349" target="-gFtQ6SPpKlM3vbzV3f1-31">
          <mxGeometry relative="1" as="geometry" />
        </mxCell>
        <mxCell id="-gFtQ6SPpKlM3vbzV3f1-349" value="&lt;font style=&quot;font-size: 16px;&quot;&gt;Adress&lt;/font&gt;" style="ellipse;shape=doubleEllipse;margin=3;whiteSpace=wrap;html=1;align=center;" vertex="1" parent="1">
          <mxGeometry x="-30" y="202.5" width="100" height="40" as="geometry" />
        </mxCell>
        <mxCell id="-gFtQ6SPpKlM3vbzV3f1-358" value="&lt;font style=&quot;font-size: 16px;&quot;&gt;Name&lt;/font&gt;" style="ellipse;whiteSpace=wrap;html=1;align=center;" vertex="1" parent="1">
          <mxGeometry x="534" y="-98" width="100" height="40" as="geometry" />
        </mxCell>
        <mxCell id="-gFtQ6SPpKlM3vbzV3f1-364" style="edgeStyle=orthogonalEdgeStyle;rounded=0;orthogonalLoop=1;jettySize=auto;html=1;exitX=0.5;exitY=0;exitDx=0;exitDy=0;entryX=1;entryY=0.5;entryDx=0;entryDy=0;endArrow=none;endFill=0;" edge="1" parent="1" source="-gFtQ6SPpKlM3vbzV3f1-361" target="-gFtQ6SPpKlM3vbzV3f1-42">
          <mxGeometry relative="1" as="geometry" />
        </mxCell>
        <mxCell id="-gFtQ6SPpKlM3vbzV3f1-365" style="edgeStyle=orthogonalEdgeStyle;rounded=0;orthogonalLoop=1;jettySize=auto;html=1;exitX=0.5;exitY=1;exitDx=0;exitDy=0;entryX=1;entryY=0.5;entryDx=0;entryDy=0;endArrow=none;endFill=0;" edge="1" parent="1" source="-gFtQ6SPpKlM3vbzV3f1-361" target="-gFtQ6SPpKlM3vbzV3f1-44">
          <mxGeometry relative="1" as="geometry" />
        </mxCell>
        <mxCell id="-gFtQ6SPpKlM3vbzV3f1-361" value="&lt;font style=&quot;font-size: 16px;&quot;&gt;Name&lt;/font&gt;" style="ellipse;shape=doubleEllipse;margin=3;whiteSpace=wrap;html=1;align=center;" vertex="1" parent="1">
          <mxGeometry x="48" y="420" width="100" height="40" as="geometry" />
        </mxCell>
        <mxCell id="-gFtQ6SPpKlM3vbzV3f1-369" style="edgeStyle=orthogonalEdgeStyle;rounded=0;orthogonalLoop=1;jettySize=auto;html=1;exitX=0.5;exitY=0;exitDx=0;exitDy=0;entryX=0;entryY=0.5;entryDx=0;entryDy=0;endArrow=none;endFill=0;" edge="1" parent="1" source="-gFtQ6SPpKlM3vbzV3f1-366" target="-gFtQ6SPpKlM3vbzV3f1-368">
          <mxGeometry relative="1" as="geometry" />
        </mxCell>
        <mxCell id="-gFtQ6SPpKlM3vbzV3f1-371" style="edgeStyle=orthogonalEdgeStyle;rounded=0;orthogonalLoop=1;jettySize=auto;html=1;exitX=0.5;exitY=1;exitDx=0;exitDy=0;entryX=0;entryY=0.5;entryDx=0;entryDy=0;endArrow=none;endFill=0;" edge="1" parent="1" source="-gFtQ6SPpKlM3vbzV3f1-366" target="-gFtQ6SPpKlM3vbzV3f1-370">
          <mxGeometry relative="1" as="geometry" />
        </mxCell>
        <mxCell id="-gFtQ6SPpKlM3vbzV3f1-366" value="&lt;font style=&quot;font-size: 16px;&quot;&gt;Name&lt;/font&gt;" style="ellipse;shape=doubleEllipse;margin=3;whiteSpace=wrap;html=1;align=center;" vertex="1" parent="1">
          <mxGeometry x="1260" y="203" width="100" height="40" as="geometry" />
        </mxCell>
        <mxCell id="-gFtQ6SPpKlM3vbzV3f1-368" value="&lt;font style=&quot;font-size: 16px;&quot;&gt;First&lt;/font&gt;" style="ellipse;whiteSpace=wrap;html=1;align=center;" vertex="1" parent="1">
          <mxGeometry x="1360" y="162.5" width="100" height="40" as="geometry" />
        </mxCell>
        <mxCell id="-gFtQ6SPpKlM3vbzV3f1-370" value="&lt;font style=&quot;font-size: 16px;&quot;&gt;Last&lt;/font&gt;" style="ellipse;whiteSpace=wrap;html=1;align=center;" vertex="1" parent="1">
          <mxGeometry x="1360" y="242.5" width="100" height="40" as="geometry" />
        </mxCell>
        <mxCell id="-gFtQ6SPpKlM3vbzV3f1-377" style="edgeStyle=orthogonalEdgeStyle;rounded=0;orthogonalLoop=1;jettySize=auto;html=1;exitX=0;exitY=1;exitDx=0;exitDy=0;entryX=1;entryY=0;entryDx=0;entryDy=0;endArrow=none;endFill=0;" edge="1" parent="1" source="-gFtQ6SPpKlM3vbzV3f1-372" target="-gFtQ6SPpKlM3vbzV3f1-163">
          <mxGeometry relative="1" as="geometry" />
        </mxCell>
        <mxCell id="-gFtQ6SPpKlM3vbzV3f1-378" style="edgeStyle=orthogonalEdgeStyle;rounded=0;orthogonalLoop=1;jettySize=auto;html=1;exitX=0.5;exitY=1;exitDx=0;exitDy=0;entryX=1;entryY=0.5;entryDx=0;entryDy=0;endArrow=none;endFill=0;" edge="1" parent="1" source="-gFtQ6SPpKlM3vbzV3f1-372" target="-gFtQ6SPpKlM3vbzV3f1-165">
          <mxGeometry relative="1" as="geometry" />
        </mxCell>
        <mxCell id="-gFtQ6SPpKlM3vbzV3f1-379" style="edgeStyle=orthogonalEdgeStyle;rounded=0;orthogonalLoop=1;jettySize=auto;html=1;exitX=1;exitY=1;exitDx=0;exitDy=0;entryX=1;entryY=0.5;entryDx=0;entryDy=0;endArrow=none;endFill=0;" edge="1" parent="1" source="-gFtQ6SPpKlM3vbzV3f1-372" target="-gFtQ6SPpKlM3vbzV3f1-171">
          <mxGeometry relative="1" as="geometry" />
        </mxCell>
        <mxCell id="-gFtQ6SPpKlM3vbzV3f1-380" style="edgeStyle=orthogonalEdgeStyle;rounded=0;orthogonalLoop=1;jettySize=auto;html=1;exitX=1;exitY=0.5;exitDx=0;exitDy=0;entryX=1;entryY=0.5;entryDx=0;entryDy=0;endArrow=none;endFill=0;" edge="1" parent="1" source="-gFtQ6SPpKlM3vbzV3f1-372" target="-gFtQ6SPpKlM3vbzV3f1-167">
          <mxGeometry relative="1" as="geometry" />
        </mxCell>
        <mxCell id="-gFtQ6SPpKlM3vbzV3f1-372" value="&lt;font style=&quot;font-size: 16px;&quot;&gt;Role&lt;/font&gt;" style="ellipse;shape=doubleEllipse;margin=3;whiteSpace=wrap;html=1;align=center;" vertex="1" parent="1">
          <mxGeometry x="466" y="604" width="100" height="40" as="geometry" />
        </mxCell>
      </root>
    </mxGraphModel>
  </diagram>
</mxfile>
